<svg xmlns="http://www.w3.org/2000/svg" width="40" height="42" viewBox="0 0 40 42">
  <g fill="#525252" fill-rule="evenodd">
    <path d="M0,0 L0,2.70676692 L0,39.2481203 L0,41.9548872 L2.70676692,41.9548872 L37.2180451,41.9548872 L39.924812,41.9548872 L39.924812,0 L0,0 Z M2.70676692,39.2481203 L37.2180451,39.2481203 L37.2180451,2.70676692 L2.70676692,2.70676692 L2.70676692,39.2481203 Z"/>
    <g transform="translate(7.519 6.767)">
      <path d="M2.77172932 28.4210827L2.77172932 24.3609323 22.4980451 24.3609323C18.3251128 28.5338647 6.30556391 28.4210827 6.30556391 28.4210827L2.77172932 28.4210827zM24.6240602.248932331C23.3025564.852240602 22.4980451 2.17374436 22.4980451 3.69615038L22.4980451 16.796C22.4980451 18.318406 23.3025564 19.6399098 24.6240602 20.243218L24.6240602 20.3006617 15.8333835 20.3006617 15.8333835 20.243218C17.1548872 19.6399098 17.9879699 18.318406 17.9879699 16.796L17.9879699.191488722 24.6240602.191488722 24.6240602.248932331zM5.31909774 20.243218L5.31909774 20.3006617.263157895 20.3006617.263157895 20.243218C1.58466165 19.6399098 2.59007519 18.1175038 2.6475188 15.8766015L2.73353383 15.8766015C2.7912782 18.1175038 3.82526316 19.6399098 5.31909774 20.243218L5.31909774 20.243218zM.263157895.248932331L.263157895.191488722 6.4393985.191488722 12.7882707 14.9000602 10.518797 20.3006617 10.4613534 20.3006617 3.79669173 5.16141353C2.73353383 2.74818045 1.58466165.708481203.263157895.248932331L.263157895.248932331z"/>
    </g>
  </g>
</svg>
