<svg xmlns="http://www.w3.org/2000/svg" width="200" height="27">
  <path fill="#303030" fill-rule="evenodd" d="M198.854 6.798l.24 4.912h-.06c-1.528-2.905-3.205-5.241-4.733-5.69v-.06c1.438.06 3.025.449 4.553.838M188.58 20.664l-.36-6.05h.03c.93 2.007 2.577 5.6 5.393 6.799v.06c-1.887-.09-3.745-.54-5.063-.809m8.867-2.007c0-1.707-2.097-2.395-4.793-3.324-3.564-1.227-4.493-2.605-4.493-4.731 0-2.786 2.037-4.193 4.343-4.583v.06c-1.108.54-1.917 1.438-1.917 2.546 0 1.497 1.798 2.096 4.254 2.935 3.026 1.018 5.003 2.276 5.003 5.18 0 3.055-2.157 4.343-4.404 4.703v-.06c.959-.3 2.007-1.198 2.007-2.726M181.254 6.02c2.007 0 2.696 1.169 2.696 2.486v9.014c0 1.588.06 2.786 1.588 3.594v.06h-7.19v-.06c1.199-.718 1.348-2.006 1.348-3.594V8.805c0-1.588-.808-2.037-1.737-1.947v-.06c1.019-.42 2.157-.779 3.295-.779zm-7.759 0c2.008 0 2.696 1.169 2.696 2.486v9.014c0 1.588.06 2.845 1.319 3.594v.06h-6.92v-.06c1.198-.718 1.347-2.006 1.347-3.594V8.805c0-1.588-.808-2.037-1.737-1.947v-.06c1.019-.42 2.157-.779 3.295-.779zm-10.934 15.094c1.528-.808 1.588-2.006 1.588-3.594V9.853c0-1.588-.06-2.785-1.588-3.594v-.06h5.842v11.32c0 1.588.09 2.876 1.318 3.594v.06h-7.16v-.06zm-7.97-15.123c2.966 0 3.954 1.617 3.954 3.504v8.025c0 1.587.06 2.786 1.588 3.594v.06h-5.781V8.625c0-.958-.09-2.216-.72-2.546v-.06c.33-.03.57-.03.96-.03m-7.28 3.894l-.06-.06 2.486-3.324c.78-.15 1.588-.27 2.546-.39v.06c-1.617.809-4.074 2.815-4.972 3.714m-.69 7.876c0-2.216 1.32-3.175 3.925-4.702a44.02 44.02 0 0 0 2.007-1.258l.03.06c-1.318 1.408-1.947 2.845-1.947 4.942 0 2.126.749 3.474 1.917 3.773v.06c-.689.39-1.438.689-2.127.689-2.666 0-3.804-1.977-3.804-3.564m-4.535-11.5v-.06h3.175v.06c-.509.45-1.438 2.336-2.067 3.864h-.09c.72-1.977.72-3.235-1.018-3.864zm-8.298 20.634c-.3 0-.66-.03-.779-.06l-.3-5.121h.06a3.948 3.948 0 0 0 2.966 1.318c1.198 0 2.127-.36 2.906-1.288h.06c-1.229 3.414-2.277 5.15-4.913 5.15zm.48-17.04c-.63-1.497-1.349-3.145-1.948-3.594v-.06h7.19v.06c-1.738.6-1.678 1.587-1.079 3.145l2.546 6.588-2.037 5.031-4.673-11.17zm-12.603 11.26c1.378-.629 2.247-2.006 2.247-3.594V3.863c0-1.587-.869-2.965-2.247-3.594V.21h9.137v.06c-1.378.63-2.217 2.007-2.217 3.594V17.52c0 1.588.839 2.965 2.217 3.594v.06h-9.137v-.06zm-3.775-10.733h4.524V9.206h-4.524v1.174zm-8.417 10.733c1.378-.629 2.246-2.006 2.246-3.594V3.863c0-1.587-.868-2.965-2.246-3.594V.21h9.136v.06c-1.378.63-2.217 2.007-2.217 3.594V17.52c0 1.588.84 2.965 2.217 3.594v.06h-9.136v-.06zm-15.682-9.104c-.06-2.516-.6-4.971-1.408-5.99v-.06c2.846.24 5.123 2.636 5.332 6.47h-7.309v-.42h3.385zm3.624 4.163l.06.03c-.748 2.426-2.785 5.24-5.96 5.24-3.086 0-6.531-2.425-6.531-7.726 0-4.522 2.786-7.037 5.602-7.637v.06c-.839.72-1.798 2.636-1.798 5.84 0 4.462 2.547 6.11 4.644 6.11 1.258 0 2.756-.72 3.983-1.917zM76.602 2.276C76.602 1.018 77.68 0 78.999 0c1.318 0 2.396 1.018 2.396 2.276 0 1.288-1.078 2.306-2.396 2.306-1.319 0-2.397-1.018-2.397-2.306zm-1.198 18.837c1.528-.808 1.588-2.006 1.588-3.594V9.853c0-1.588-.06-2.785-1.588-3.594v-.06h5.841v11.32c0 1.588.06 2.786 1.588 3.594v.06h-7.43v-.06zm-7.719-9.074c0-2.516-.808-4.672-1.737-5.78v-.06h7.13v.06l-2.816 1.498c.929.778 1.588 1.826 1.588 3.234 0 2.995-2.367 4.731-4.853 5.3v-.06c.449-.688.688-2.305.688-4.192m5.423 7.277c0 .57-.57 1.587-1.468 2.546h-.06c.15-.39 0-.63-1.378-.63h-7.759c-1.558 0-3.056-.299-3.056-1.586 0-1.109 1.229-2.127 2.936-2.786l.06.03c-.09.09-.18.27-.18.45 0 .479.66.569 1.558.569h6.74c1.468 0 2.607.24 2.607 1.407M59.268 11.5c0-2.815 2.456-4.702 4.882-5.181v.06c-.329.659-.658 2.096-.658 4.103 0 2.306.749 5.091 1.707 5.96v.059c-2.696 0-5.931-1.527-5.931-5.001m10.814 11.83h.12c-2.067 1.796-5.063 3.443-8.208 3.443-2.307 0-3.355-.868-3.355-2.126 0-.839.539-1.647 1.348-2.336h.12c0 1.407 2.097 1.947 4.014 1.947 1.617 0 4.583-.39 5.961-.929M51.407 12.04c0-2.516-.809-4.672-1.737-5.78V6.2h7.13v.06l-2.817 1.498c.93.778 1.588 1.826 1.588 3.234 0 2.995-2.366 4.731-4.853 5.3v-.06c.45-.688.69-2.305.69-4.192m5.421 7.277c0 .57-.569 1.587-1.468 2.546h-.06c.15-.39 0-.63-1.377-.63h-7.76c-1.557 0-3.055-.299-3.055-1.586 0-1.109 1.229-2.127 2.936-2.786l.06.03c-.09.09-.18.27-.18.45 0 .479.66.569 1.558.569h6.74c1.468 0 2.606.24 2.606 1.407M42.99 11.5c0-2.815 2.457-4.702 4.883-5.181v.06c-.33.659-.659 2.096-.659 4.103 0 2.306.75 5.091 1.708 5.96v.059c-2.696 0-5.931-1.527-5.931-5.001m10.814 11.83h.12c-2.067 1.796-5.063 3.443-8.208 3.443-2.307 0-3.356-.868-3.356-2.126 0-.839.54-1.647 1.349-2.336h.12c0 1.407 2.096 1.947 4.013 1.947 1.618 0 4.584-.39 5.962-.929M35.34 6.03c2.966 0 3.955 1.616 3.955 3.504v8.025c0 1.588.06 2.786 1.587 3.594v.06h-5.781V8.664c0-.958-.09-2.216-.72-2.545v-.06c.33-.03.57-.03.96-.03m-7.28 3.893l-.06-.06 2.486-3.324c.78-.15 1.588-.27 2.547-.39v.06c-1.618.809-4.075 2.815-4.973 3.714m-.69 7.876c0-2.216 1.319-3.175 3.925-4.702.809-.48 1.468-.898 2.007-1.258l.03.06c-1.318 1.408-1.947 2.845-1.947 4.942 0 2.126.749 3.474 1.917 3.773v.06c-.69.39-1.438.689-2.127.689-2.666 0-3.804-1.977-3.804-3.564M25.403.308c-1.378.63-2.216 2.007-2.216 3.594v13.656c0 1.588.838 2.965 2.216 3.594v.06h-9.167v-.06c1.379-.629 2.247-2.006 2.247-3.594V.248h6.92v.06zM5.273 21.152v.06H0v-.06c1.378-.629 2.426-2.216 2.486-4.552h.09c.06 2.336 1.139 3.923 2.697 4.552zM0 .308v-.06h6.44l6.621 15.334-2.366 5.63h-.06L3.685 5.43C2.576 2.914 1.378.788 0 .308z"/>
</svg>