<svg xmlns="http://www.w3.org/2000/svg" width="40" height="42">
  <path fill="#303030" fill-rule="evenodd" d="M0 0v41.955h39.925V0H0zm2.707 39.248V2.707h34.511v36.541H2.707zm7.584-4.06h3.533s12.02.113 16.193-4.06H10.29v4.06zM32.143 7.016v-.058h-6.636v16.605c0 1.522-.833 2.844-2.155 3.447v.058h8.79v-.058c-1.32-.603-2.125-1.925-2.125-3.447v-13.1c0-1.522.804-2.844 2.126-3.447zM12.838 27.01c-1.494-.603-2.528-2.126-2.586-4.366h-.086c-.057 2.24-1.063 3.763-2.384 4.366v.058h5.056v-.058zM7.782 7.016c1.321.46 2.47 2.5 3.533 4.912l6.665 15.14h.058l2.27-5.401-6.35-14.709H7.782v.058z"/>
</svg>