<svg xmlns="http://www.w3.org/2000/svg" width="200" height="26" viewBox="0 0 200 26" xmlns:xlink="http://www.w3.org/1999/xlink">
  <defs>
    <polygon id="a" points=".11 19.69 12.407 19.69 12.407 .021 .11 .021 .11 19.69"/>
    <polygon id="c" points="0 .08 0 20.006 24.139 20.006 24.139 .08 0 .08"/>
  </defs>
  <g fill="none" fill-rule="evenodd">
    <path fill="#525252" d="M198.950111 6.46185841L199.177765 11.13 199.120686 11.13C197.669137 8.36893805 196.075111 6.14836283 194.623119 5.72137168L194.623119 5.66473451C195.989934 5.72137168 197.498562 6.09172566 198.950111 6.46185841M189.186394 19.6415044L188.844801 13.8910619 188.873341 13.8910619C189.755863 15.7981416 191.32135 19.2140708 193.997013 20.3530088L193.997013 20.409646C192.203872 20.3242478 190.438827 19.8972566 189.186394 19.6415044M197.612058 17.7339823C197.612058 16.1114159 195.61958 15.4569912 193.057854 14.574469 189.670465 13.4074336 188.787942 12.0979204 188.787942 10.0769027 188.787942 7.42933628 190.723562 6.09172566 192.915376 5.72137168L192.915376 5.77845133C191.862058 6.29084071 191.093473 7.14482301 191.093473 8.19792035 191.093473 9.62137168 192.801438 10.1908407 195.135951 10.9875221 198.01073 11.9554425 199.88927 13.1510177 199.88927 15.9120796 199.88927 18.8156195 197.839712 20.0397345 195.704978 20.3815487L195.704978 20.3242478C196.61604 20.0397345 197.612058 19.1857522 197.612058 17.7339823M181.451903 5.72141593C183.358982 5.72141593 184.01385 6.83181416 184.01385 8.08402655L184.01385 16.6521681C184.01385 18.1607965 184.070487 19.2997345 185.522478 20.0683186L185.522478 20.125177 178.690398 20.125177 178.690398 20.0683186C179.829336 19.3851327 179.971372 18.1607965 179.971372 16.6521681L179.971372 8.3689823C179.971372 6.86035398 179.20323 6.43336283 178.320487 6.51853982L178.320487 6.46190265C179.288407 6.06300885 180.370265 5.72141593 181.451903 5.72141593L181.451903 5.72141593zM174.079115 5.72141593C175.986416 5.72141593 176.640841 6.83181416 176.640841 8.08402655L176.640841 16.6521681C176.640841 18.1607965 176.69792 19.3565929 177.893717 20.0683186L177.893717 20.125177 171.318053 20.125177 171.318053 20.0683186C172.45677 19.3851327 172.598805 18.1607965 172.598805 16.6521681L172.598805 8.3689823C172.598805 6.86035398 171.830221 6.43336283 170.948142 6.51853982L170.948142 6.46190265C171.915841 6.06300885 172.997257 5.72141593 174.079115 5.72141593L174.079115 5.72141593zM163.689071 20.0683186C165.141062 19.2997345 165.197699 18.1607965 165.197699 16.6521681L165.197699 9.365C165.197699 7.85637168 165.141062 6.71787611 163.689071 5.94929204L163.689071 5.89243363 169.240177 5.89243363 169.240177 16.6521681C169.240177 18.1607965 169.325575 19.3851327 170.492611 20.0683186L170.492611 20.125177 163.689071 20.125177 163.689071 20.0683186zM155.157412 5.69323009C157.975553 5.69323009 158.914934 7.23017699 158.914934 9.02376106L158.914934 16.6520796C158.914934 18.1609292 158.971571 19.299646 160.423562 20.0684513L160.423562 20.1250885 154.929535 20.1250885 154.929535 8.19787611C154.929535 7.28725664 154.844358 6.09168142 154.24635 5.77862832L154.24635 5.72132743C154.559403 5.69323009 154.787279 5.69323009 155.157412 5.69323009M148.240155 9.39367257L148.183296 9.33681416 150.545907 6.17685841C151.285951 6.03460177 152.054757 5.92110619 152.965376 5.80716814L152.965376 5.86380531C151.428429 6.63261062 149.094137 8.53969027 148.240155 9.39367257M147.58573 16.8799558C147.58573 14.7735398 148.838164 13.8624779 151.314712 12.4109292 152.083296 11.9553982 152.709403 11.5569469 153.221792 11.215354L153.250332 11.2724336C151.997456 12.6102655 151.399889 13.9764159 151.399889 15.9693363 151.399889 17.990354 152.111394 19.2711062 153.221792 19.5556195L153.221792 19.6129204C152.566925 19.9826106 151.85542 20.2675664 151.200774 20.2675664 148.667146 20.2675664 147.58573 18.3885841 147.58573 16.8799558"/>
    <g transform="translate(132.743 5.872)">
      <mask id="b" fill="white">
        <use xlink:href="#a"/>
      </mask>
      <path fill="#525252" d="M9.39017699,0.0775 L9.39017699,0.0206415929 L12.4072124,0.0206415929 L12.4072124,0.0775 C11.9235841,0.50449115 11.0408407,2.29807522 10.4432743,3.74962389 L10.3580973,3.74962389 C11.0408407,1.87108407 11.0408407,0.67550885 9.39017699,0.0775 L9.39017699,0.0775 Z M1.505,19.6903319 C1.22048673,19.6903319 0.878893805,19.6620133 0.764955752,19.6334735 L0.480442478,14.7657743 L0.537079646,14.7657743 C1.16340708,15.4777212 2.15964602,16.0184292 3.35544248,16.0184292 C4.49393805,16.0184292 5.37646018,15.6768363 6.11650442,14.7943142 L6.17358407,14.7943142 C5.00610619,18.0394469 4.0100885,19.6903319 1.505,19.6903319 L1.505,19.6903319 Z M1.96053097,3.49320796 C1.36252212,2.07042035 0.679557522,0.50449115 0.110088496,0.0775 L0.110088496,0.0206415929 L6.94172566,0.0206415929 L6.94172566,0.0775 C5.29106195,0.646969027 5.34769912,1.58612832 5.91716814,3.06643805 L8.33663717,9.32882743 L6.4010177,14.1109071 L1.96053097,3.49320796 Z" mask="url(#b)"/>
    </g>
    <path fill="#525252" d="M121.696681 20.068385C123.006195 19.4703761 123.831637 18.1608628 123.831637 16.6522345L123.831637 3.67214602C123.831637 2.1635177 123.006195.854004425 121.696681.255995575L121.696681.199358407 130.378761.199358407 130.378761.255995575C129.069248.854004425 128.272345 2.1635177 128.272345 3.67214602L128.272345 16.6522345C128.272345 18.1608628 129.069248 19.4703761 130.378761 20.068385L130.378761 20.1252434 121.696681 20.1252434 121.696681 20.068385zM118.110177 9.50754425L122.408186 9.50754425 122.408186 9.10909292 118.110177 9.10909292 118.110177 9.50754425zM110.111062 20.068385C111.420575 19.4703761 112.246018 18.1608628 112.246018 16.6522345L112.246018 3.67214602C112.246018 2.1635177 111.420575.854004425 110.111062.255995575L110.111062.199358407 118.793142.199358407 118.793142.255995575C117.483628.854004425 116.686947 2.1635177 116.686947 3.67214602L116.686947 16.6522345C116.686947 18.1608628 117.483628 19.4703761 118.793142 20.068385L118.793142 20.1252434 110.111062 20.1252434 110.111062 20.068385zM95.2103097 11.4145575C95.1534513 9.02362832 94.6408407 6.68933628 93.8724779 5.72141593L93.8724779 5.66455752C96.5764602 5.89243363 98.7399558 8.16986726 98.939292 11.8134513L91.9937168 11.8134513 91.9937168 11.4145575 95.2103097 11.4145575zM98.6543363 15.3711947L98.7114159 15.3997345C97.9999115 17.705708 96.064292 20.3813717 93.0468142 20.3813717 90.1149558 20.3813717 86.8415044 18.0756195 86.8415044 13.0371239 86.8415044 8.73889381 89.4886283 6.3479646 92.164292 5.77849558L92.164292 5.83535398C91.3673894 6.51853982 90.4563274 8.34044248 90.4563274 11.3864602 90.4563274 15.6276106 92.8760177 17.1930973 94.8687168 17.1930973 96.064292 17.1930973 97.4873009 16.5101327 98.6543363 15.3711947L98.6543363 15.3711947zM78.0502876 2.1635177C78.0502876.967942478 79.0750664.0000221238938 80.3277212.0000221238938 81.5801549.0000221238938 82.6047124.967942478 82.6047124 2.1635177 82.6047124 3.3874115 81.5801549 4.35511062 80.3277212 4.35511062 79.0750664 4.35511062 78.0502876 3.3874115 78.0502876 2.1635177L78.0502876 2.1635177zM76.911792 20.068385C78.3635619 19.2998009 78.4204204 18.1608628 78.4204204 16.6522345L78.4204204 9.36506637C78.4204204 7.85621681 78.3635619 6.71772124 76.911792 5.94913717L76.911792 5.8925 82.4624558 5.8925 82.4624558 16.6522345C82.4624558 18.1608628 82.5195354 19.2998009 83.9713053 20.068385L83.9713053 20.1250221 76.911792 20.1250221 76.911792 20.068385zM68.4942035 11.4431416C68.4942035 9.05199115 67.7256195 7.00243363 66.8430973 5.94911504L66.8430973 5.89247788 73.6178761 5.89247788 73.6178761 5.94911504 70.9422124 7.37256637C71.8245133 8.11261062 72.4508407 9.1090708 72.4508407 10.4466814 72.4508407 13.2935841 70.2021681 14.9442478 67.8395575 15.485177L67.8395575 15.4283186C68.2663274 14.7736726 68.4942035 13.2362832 68.4942035 11.4431416M73.6461947 18.360177C73.6461947 18.900885 73.105708 19.8688053 72.2515044 20.7798673L72.194646 20.7798673C72.3369027 20.4097345 72.194646 20.1818584 70.8851327 20.1818584L63.5127876 20.1818584C62.0324779 20.1818584 60.6092478 19.8973451 60.6092478 18.6736726 60.6092478 17.6201327 61.7762832 16.6522124 63.3988496 16.0261062L63.455708 16.054646C63.3703097 16.139823 63.2849115 16.3108407 63.2849115 16.4816372 63.2849115 16.9371681 63.9112389 17.0223451 64.765 17.0223451L71.1698673 17.0223451C72.5647788 17.0223451 73.6461947 17.2502212 73.6461947 18.360177M60.4953097 10.9307522C60.4953097 8.2550885 62.8293805 6.4619469 65.1351327 6.00641593L65.1351327 6.0630531C64.8220796 6.68915929 64.5090265 8.05597345 64.5090265 9.9630531 64.5090265 12.154646 65.2207522 14.8022124 66.1315929 15.6276549L66.1315929 15.684292C63.5694248 15.684292 60.4953097 14.2327434 60.4953097 10.9307522M70.7714159 22.1747788L70.8851327 22.1747788C68.9211947 23.8825221 66.0745133 25.4480088 63.0855752 25.4480088 60.8937611 25.4480088 59.8975221 24.6227876 59.8975221 23.4269912 59.8975221 22.6303097 60.4099115 21.8615044 61.1784956 21.2068584L61.2924336 21.2068584C61.2924336 22.544469 63.2849115 23.0573009 65.1068142 23.0573009 66.6437611 23.0573009 69.4621239 22.6869469 70.7714159 22.1747788M51.4799115 11.4431416C51.4799115 9.05199115 50.7113274 7.00243363 49.8288053 5.94911504L49.8288053 5.89247788 56.6035841 5.89247788 56.6035841 5.94911504 53.9279204 7.37256637C54.8102212 8.11261062 55.4365487 9.1090708 55.4365487 10.4466814 55.4365487 13.2935841 53.1878761 14.9442478 50.8252655 15.485177L50.8252655 15.4283186C51.2520354 14.7736726 51.4799115 13.2362832 51.4799115 11.4431416M56.6319027 18.360177C56.6319027 18.900885 56.0911947 19.8688053 55.2372124 20.7798673L55.180354 20.7798673C55.3226106 20.4097345 55.180354 20.1818584 53.8708407 20.1818584L46.4984956 20.1818584C45.0181858 20.1818584 43.5949558 19.8973451 43.5949558 18.6736726 43.5949558 17.6201327 44.7619912 16.6522124 46.3845575 16.0261062L46.4414159 16.054646C46.3560177 16.139823 46.2706195 16.3108407 46.2706195 16.4816372 46.2706195 16.9371681 46.8969469 17.0223451 47.750708 17.0223451L54.1555752 17.0223451C55.5504867 17.0223451 56.6319027 17.2502212 56.6319027 18.360177M43.4810177 10.9307522C43.4810177 8.2550885 45.8150885 6.4619469 48.1208407 6.00641593L48.1208407 6.0630531C47.8077876 6.68915929 47.4947345 8.05597345 47.4947345 9.9630531 47.4947345 12.154646 48.2064602 14.8022124 49.1173009 15.6276549L49.1173009 15.684292C46.5551327 15.684292 43.4810177 14.2327434 43.4810177 10.9307522M53.7571239 22.1747788L53.8708407 22.1747788C51.9069027 23.8825221 49.0602212 25.4480088 46.0715044 25.4480088 43.879469 25.4480088 42.8832301 24.6227876 42.8832301 23.4269912 42.8832301 22.6303097 43.3956195 21.8615044 44.1642035 21.2068584L44.2781416 21.2068584C44.2781416 22.544469 46.2706195 23.0573009 48.0925221 23.0573009 49.629469 23.0573009 52.4476106 22.6869469 53.7571239 22.1747788M34.5809735 5.69323009C37.3988938 5.69323009 38.3384956 7.23017699 38.3384956 9.02376106L38.3384956 16.6520796C38.3384956 18.1609292 38.395354 19.299646 39.8469027 20.0684513L39.8469027 20.1250885 34.3530973 20.1250885 34.3530973 8.19787611C34.3530973 7.28725664 34.2679204 6.09168142 33.6701327 5.77862832L33.6701327 5.72132743C33.9831858 5.69323009 34.2108407 5.69323009 34.5809735 5.69323009M27.6639381 9.39367257L27.6068584 9.33681416 29.969469 6.17685841C30.7095133 6.03460177 31.4783186 5.92110619 32.3891593 5.80716814L32.3891593 5.86380531C30.8517699 6.63261062 28.5176991 8.53969027 27.6639381 9.39367257M27.0090708 16.8799558C27.0090708 14.7735398 28.2617257 13.8624779 30.7380531 12.4109292 31.5066372 11.9553982 32.1327434 11.5569469 32.645354 11.215354L32.6736726 11.2724336C31.4212389 12.6102655 30.8234513 13.9764159 30.8234513 15.9693363 30.8234513 17.990354 31.535177 19.2711062 32.645354 19.5556195L32.645354 19.6129204C31.9904867 19.9826106 31.2787611 20.2675664 30.6243363 20.2675664 28.090708 20.2675664 27.0090708 18.3885841 27.0090708 16.8799558"/>
    <g transform="translate(0 .12)">
      <mask id="d" fill="white">
        <use xlink:href="#c"/>
      </mask>
      <path fill="#525252" d="M24.1388717,0.136548673 C22.8293584,0.734557522 22.0324558,2.0440708 22.0324558,3.55269912 L22.0324558,16.5327876 C22.0324558,18.0414159 22.8293584,19.3509292 24.1388717,19.9489381 L24.1388717,20.0055752 L15.4282522,20.0055752 L15.4282522,19.9489381 C16.7377655,19.3509292 17.5634292,18.0414159 17.5634292,16.5327876 L17.5634292,0.0796902655 L24.1388717,0.0796902655 L24.1388717,0.136548673 Z M5.01011062,19.9489381 L5.01011062,20.0055752 L-6.63716819e-05,20.0055752 L-6.63716819e-05,19.9489381 C1.3094469,19.3509292 2.30568584,17.8423009 2.36254425,15.6219469 L2.44816372,15.6219469 C2.50502212,17.8423009 3.52980088,19.3509292 5.01011062,19.9489381 L5.01011062,19.9489381 Z M-6.63716819e-05,0.136548673 L-6.63716819e-05,0.0796902655 L6.12006637,0.0796902655 L12.4109956,14.6542478 L10.162323,20.0055752 L10.1054646,20.0055752 L3.50126106,5.00424779 C2.44816372,2.61309735 1.3094469,0.592079646 -6.63716819e-05,0.136548673 L-6.63716819e-05,0.136548673 Z" mask="url(#d)"/>
    </g>
  </g>
</svg>
